# xmcd
#
# Track frame offsets:
#	150
#	21413
#	37201
#	51157
#	64436
#	76244
#	93203
#	108655
#	119373
#	136389
#	156416
#	171239
#	182239
#	202160
#	224362
#	238978
#	252902
#	271049
#	286054
#	301585
#	316947
#	327744
#
# Disc length: 4573 seconds
#
# Revision: 0
# Processed by: cddbd v1.5.2PL0 Copyright (c) Steve Scherf et al.
# Submitted via: dBpowerAMP V4.0
#
DISCID=5111db16
DTITLE=Magni Christiansen - Eg vil ikki tiga cd 1
DYEAR=2008
DGENRE=Gospel
TTITLE0=Hví skal eg nú syrgja
TTITLE1=Mín Jesus livir
TTITLE2=Hann hevur valdið
TTITLE3=Dýrabart er mavn tít Jesus
TTITLE4=Her glaður eg ferðist
TTITLE5=Fær tær ein túr
TTITLE6=The Church in the Wildwood
TTITLE7=Tú kemur ei uttan um Jesus
TTITLE8=Í gjár í dag ja alla tíð
TTITLE9=Ein blóðig hond nú bankar
TTITLE10=Hin misti friðurin
TTITLE11=Er tað satt at Jesus er mín bróðir
TTITLE12=Tá ið endar mítt stríð
TTITLE13=Tú svíkti ei
TTITLE14=I´ll fly away
TTITLE15=Sig mær tað gomlu søgu
TTITLE16=Jesus halt mær við tín kross
TTITLE17=Eg vil ikki tiga
TTITLE18=Sum ein føgur guðdómskelda
TTITLE19=Hvussu long tíð er tað
TTITLE20=Á Guð tín náði
TTITLE21=Eg hoyrdi einglasong
EXTD=
EXTT0=
EXTT1=
EXTT2=
EXTT3=
EXTT4=
EXTT5=
EXTT6=
EXTT7=
EXTT8=
EXTT9=
EXTT10=
EXTT11=
EXTT12=
EXTT13=
EXTT14=
EXTT15=
EXTT16=
EXTT17=
EXTT18=
EXTT19=
EXTT20=
EXTT21=
PLAYORDER=
